<?xml version="1.0" standalone="no"?>
<!DOCTYPE svg PUBLIC "-//W3C//DTD SVG 20010904//EN"
 "http://www.w3.org/TR/2001/REC-SVG-20010904/DTD/svg10.dtd">
<svg version="1.0" xmlns="http://www.w3.org/2000/svg"
 width="512.000000pt" height="512.000000pt" viewBox="0 0 512.000000 512.000000"
 preserveAspectRatio="xMidYMid meet">
<metadata>
Created by potrace 1.11, written by Peter Selinger 2001-2013
</metadata>
<g transform="translate(0.000000,512.000000) scale(0.100000,-0.100000)"
fill="#000000" stroke="none">
<path d="M2325 5109 c-511 -52 -984 -245 -1374 -560 -125 -100 -337 -319 -429
-441 -148 -198 -284 -446 -366 -669 -204 -554 -204 -1201 -2 -1754 53 -143
183 -402 263 -525 190 -289 454 -553 743 -743 136 -89 384 -212 536 -266 145
-52 349 -102 509 -127 169 -26 541 -26 710 0 465 71 899 260 1250 543 200 161
397 378 538 593 80 123 210 382 263 525 175 478 200 1025 69 1522 -46 176 -91
295 -175 469 -125 259 -261 453 -465 663 -223 228 -423 375 -699 511 -258 127
-488 200 -758 241 -154 23 -474 33 -613 18z m-1050 -1334 c552 -45 941 -153
1214 -339 44 -30 83 -51 86 -46 3 4 36 28 73 53 215 141 549 252 912 301 144
20 461 46 557 46 l73 0 0 -1219 0 -1219 -117 -6 c-490 -26 -743 -64 -1028
-157 -137 -45 -356 -150 -429 -207 l-50 -38 -78 53 c-205 142 -521 249 -891
303 -125 19 -301 34 -539 46 l-118 6 0 1219 0 1219 73 0 c40 0 158 -7 262 -15z"/>
<path d="M1350 2561 l0 -819 68 -7 c322 -32 638 -110 866 -214 38 -17 70 -31
72 -31 2 0 4 367 4 815 l0 815 -39 19 c-189 97 -521 187 -806 220 -55 7 -115
14 -132 16 l-33 4 0 -818z"/>
<path d="M3725 3373 c-397 -48 -648 -110 -870 -212 l-85 -40 0 -815 c0 -449 2
-816 4 -816 2 0 38 16 82 36 191 89 492 166 781 201 l143 17 0 818 c0 649 -3
818 -12 817 -7 -1 -26 -4 -43 -6z"/>
</g>
</svg>
